<?xml version="1.0" encoding="UTF-8"?>
<svg width="105px" height="86px" viewBox="0 0 105 86" version="1.1" xmlns="http://www.w3.org/2000/svg" xmlns:xlink="http://www.w3.org/1999/xlink">
    <!-- Generator: Sketch 52.5 (67469) - http://www.bohemiancoding.com/sketch -->
    <title>message-icon</title>
    <desc>Created with Sketch.</desc>
    <g id="Page-1" stroke="none" stroke-width="1" fill="none" fill-rule="evenodd">
        <g id="Artboard" transform="translate(-668.000000, -1203.000000)">
            <g id="Group-15" transform="translate(562.000000, 1202.000000)">
                <g id="message-icon" transform="translate(104.000000, 0.000000)">
                    <g id="Group-9" transform="translate(31.000000, 37.000000)" fill="#0003FF" fill-rule="nonzero">
                        <circle id="Oval" cx="6" cy="6" r="6"></circle>
                        <circle id="Oval-Copy" cx="25" cy="6" r="6"></circle>
                        <circle id="Oval-Copy-2" cx="44" cy="6" r="6"></circle>
                    </g>
                    <path d="M38.0285196,70.12701 L27.7645791,77.7299173 C26.8770029,78.3873812 25.6245005,78.2008382 24.9670367,77.3132621 C24.5762644,76.7857195 24.4692827,76.0999877 24.6807909,75.4784827 C26.0623589,71.4188222 26.6570203,67.8837662 26.4647752,64.8733145 C19.5891503,59.7462297 17,52.2942756 17,44 C17,28.536027 23,16 55,16 C87,16 93,28.536027 93,44 C93,59.463973 84,72 55,72 C48.3292206,72 42.7166884,71.3366892 38.0285196,70.12701 Z" id="Combined-Shape" stroke="#0003FF" stroke-width="6" fill-rule="nonzero"></path>
                    <g id="Group-10" transform="translate(92.500000, 76.500000) rotate(-8.000000) translate(-92.500000, -76.500000) translate(78.000000, 67.000000)" fill="#000000">
                        <path d="M3.65202592,8.05202592 C3.05202592,7.85202592 2.35202592,8.25202592 2.15202592,8.85202592 L0.0520259177,15.8520259 C-0.147974082,16.4520259 0.252025918,17.1520259 0.852025918,17.3520259 C0.952025918,17.3520259 1.05202592,17.4520259 1.25202592,17.4520259 C1.75202592,17.4520259 2.25202592,17.1520259 2.45202592,16.5520259 L4.55202592,9.55202592 C4.65202592,8.95202592 4.35202592,8.25202592 3.65202592,8.05202592 Z" id="Path"></path>
                        <path d="M13.3617045,6.76170448 C13.0617045,6.16170448 12.3617045,5.86170448 11.7617045,6.06170448 C11.1617045,6.36170448 10.8617045,7.06170448 11.0617045,7.66170448 L15.0617045,17.3617045 C15.2617045,17.8617045 15.7617045,18.1617045 16.1617045,18.1617045 C16.3617045,18.1617045 16.4617045,18.1617045 16.6617045,18.0617045 C17.2617045,17.7617045 17.5617045,17.0617045 17.3617045,16.4617045 L13.3617045,6.76170448 Z" id="Path"></path>
                        <path d="M28.2378293,3.73782934 L21.8378293,0.137829343 C21.2378293,-0.162170657 20.5378293,0.0378293432 20.1378293,0.637829343 C19.8378293,1.23782934 20.0378293,1.93782934 20.6378293,2.33782934 L27.0378293,5.93782934 C27.2378293,6.03782934 27.4378293,6.13782934 27.6378293,6.13782934 C28.0378293,6.13782934 28.4378293,5.93782934 28.7378293,5.53782934 C29.0378293,4.83782934 28.8378293,4.13782934 28.2378293,3.73782934 Z" id="Path"></path>
                    </g>
                    <g id="Group-10" transform="translate(15.681031, 11.425557) scale(-1, -1) rotate(-8.000000) translate(-15.681031, -11.425557) translate(1.181031, 1.925557)" fill="#000000">
                        <path d="M3.65202592,8.05202592 C3.05202592,7.85202592 2.35202592,8.25202592 2.15202592,8.85202592 L0.0520259177,15.8520259 C-0.147974082,16.4520259 0.252025918,17.1520259 0.852025918,17.3520259 C0.952025918,17.3520259 1.05202592,17.4520259 1.25202592,17.4520259 C1.75202592,17.4520259 2.25202592,17.1520259 2.45202592,16.5520259 L4.55202592,9.55202592 C4.65202592,8.95202592 4.35202592,8.25202592 3.65202592,8.05202592 Z" id="Path"></path>
                        <path d="M13.3617045,6.76170448 C13.0617045,6.16170448 12.3617045,5.86170448 11.7617045,6.06170448 C11.1617045,6.36170448 10.8617045,7.06170448 11.0617045,7.66170448 L15.0617045,17.3617045 C15.2617045,17.8617045 15.7617045,18.1617045 16.1617045,18.1617045 C16.3617045,18.1617045 16.4617045,18.1617045 16.6617045,18.0617045 C17.2617045,17.7617045 17.5617045,17.0617045 17.3617045,16.4617045 L13.3617045,6.76170448 Z" id="Path"></path>
                        <path d="M28.2378293,3.73782934 L21.8378293,0.137829343 C21.2378293,-0.162170657 20.5378293,0.0378293432 20.1378293,0.637829343 C19.8378293,1.23782934 20.0378293,1.93782934 20.6378293,2.33782934 L27.0378293,5.93782934 C27.2378293,6.03782934 27.4378293,6.13782934 27.6378293,6.13782934 C28.0378293,6.13782934 28.4378293,5.93782934 28.7378293,5.53782934 C29.0378293,4.83782934 28.8378293,4.13782934 28.2378293,3.73782934 Z" id="Path"></path>
                    </g>
                </g>
            </g>
        </g>
    </g>
</svg>