<?xml version="1.0" encoding="UTF-8"?>
<svg width="83px" height="98px" viewBox="0 0 83 98" version="1.1" xmlns="http://www.w3.org/2000/svg" xmlns:xlink="http://www.w3.org/1999/xlink">
    <!-- Generator: Sketch 52.5 (67469) - http://www.bohemiancoding.com/sketch -->
    <title>pinky-icon-notification</title>
    <desc>Created with Sketch.</desc>
    <g id="Page-1" stroke="none" stroke-width="1" fill="none" fill-rule="evenodd">
        <g id="Artboard" transform="translate(-679.000000, -150.000000)">
            <g id="pinky-icon-notification" transform="translate(679.000000, 150.000000)">
                <path d="M74.5333456,77.9101007 C80.0403456,70.5051007 81.9423456,60.4311007 81.1423456,55.1301007 C80.4493456,50.5401007 73.3033456,40.0391007 67.4943456,37.7891007 C66.6623456,37.4671007 65.8143456,37.3281007 64.9313456,37.3331007 C61.7343456,30.6321007 56.3943456,29.6151007 52.3803456,30.9531007 C51.0023456,31.4131007 49.6433456,32.3511007 48.5683456,33.8001007 C47.9143456,33.3531007 47.0753456,32.9701007 46.1513456,32.8131007 C44.5763456,32.5471007 43.0473456,32.9501007 41.7183456,33.9811007 C40.9453456,34.5821007 40.2733456,35.3671007 39.7003456,36.2931007 C38.6103456,35.8191007 37.4623456,35.6561007 36.3103456,35.8341007 C35.0533456,36.0291007 33.8683456,36.6191007 32.9073456,37.4961007 C31.9963456,34.9851007 31.2333456,32.4481007 30.5473456,30.1471007 C28.3513456,22.7891007 26.6343456,16.9721007 21.6993456,17.0001007 C20.1073456,17.0071007 18.7573456,17.6011007 17.7943456,18.7161007 C16.0563456,20.7281007 15.5873456,24.3391007 16.3593456,29.7531007 C17.0353456,34.5021007 19.5603456,42.3021007 22.8063456,49.6781007 C23.0523456,51.8131007 24.9293456,66.7141007 30.5973456,77.2631007 C33.3543456,82.3941007 37.5793456,86.0981007 42.1183456,87.5401007 C42.2013456,87.6591007 42.2963456,87.7711007 42.4163456,87.8661007 C46.2693456,90.9041007 47.4263456,95.1871007 47.4363456,95.2251007 C47.6093456,95.9031007 48.2193456,96.3541007 48.8893456,96.3541007 C49.0123456,96.3541007 49.1373456,96.3391007 49.2613456,96.3071007 C50.0643456,96.1021007 50.5483456,95.2861007 50.3433456,94.4831007 C50.3013456,94.3181007 49.4893456,91.2651007 46.9783456,88.1861007 C50.5563456,88.0081007 54.1813456,86.5771007 55.5363456,85.9861007 C56.7603456,86.3731007 58.1043456,86.6191007 59.5653456,86.6191007 C61.5433456,86.6191007 63.7243456,86.1801007 66.0683456,85.0721007 C67.9603456,84.1781007 69.6573456,83.0071007 71.1703456,81.6381007 C71.1513456,86.2221007 72.3563456,89.8861007 72.4243456,90.0891007 C72.6343456,90.7161007 73.2183456,91.1121007 73.8453456,91.1121007 C74.0023456,91.1121007 74.1623456,91.0871007 74.3213456,91.0341007 C75.1063456,90.7721007 75.5303456,89.9231007 75.2693456,89.1381007 C75.2513456,89.0811007 73.4393456,83.4951007 74.5333456,77.9101007 Z M53.3323456,33.8001007 C56.6853456,32.6771007 59.7913456,34.1931007 61.8303456,37.8521007 C60.0003456,38.3871007 57.9853456,39.2871007 55.6663456,40.3271007 C54.1903456,40.9891007 52.5183456,41.7391007 50.7223456,42.4641007 C50.2863456,42.6401007 49.8783456,42.8541007 49.4983456,43.0951007 C48.9193456,37.4391007 51.0623456,34.5581007 53.3323456,33.8001007 Z M60.7203456,55.2781007 C61.5283456,56.6161007 62.8873456,59.5051007 60.8313456,61.1961007 C60.4933456,61.4731007 59.9193456,61.8001007 58.8453456,61.4311007 C56.8453456,60.7451007 54.4393456,58.1391007 53.0083456,55.3881007 C54.9493456,55.7661007 57.4803456,55.7991007 60.7203456,55.2781007 Z M43.5603456,36.3521007 C45.4283456,34.9041007 47.1213456,36.4631007 47.1633456,36.4941007 C46.3333456,38.8611007 46.1093456,41.9931007 46.9223456,45.9641007 C46.2663456,47.3251007 46.0873456,48.8741007 46.5263456,50.3741007 C46.7513456,51.1401007 47.4113456,52.6481007 49.1743456,53.8641007 C49.9293456,56.5001007 51.7733456,59.5811007 54.0463456,61.7661007 C52.5983456,63.2671007 51.2513456,64.0331007 50.0343456,64.0391007 L50.0193456,64.0391007 C48.9363456,64.0391007 47.8393456,63.4101007 46.7583456,62.1711007 C41.8233456,56.5141007 40.1413456,48.5511007 40.6633456,43.1701007 C40.9733456,39.9831007 42.0013456,37.5621007 43.5603456,36.3521007 Z M36.7733456,38.8001007 C37.3383456,38.7101007 37.9023456,38.8011007 38.4603456,39.0351007 C38.0833456,40.2001007 37.8133456,41.4841007 37.6783456,42.8811007 C36.9653456,50.2311007 39.6423456,58.5771007 44.4983456,64.1451007 C44.9373456,64.6481007 45.3893456,65.0831007 45.8523456,65.4561007 C44.5153456,66.6791007 43.1993456,67.3071007 42.0593456,67.2511007 C40.9283456,67.2121007 39.8253456,66.5571007 38.7793456,65.3071007 C31.4623456,56.5571007 31.7753456,43.9871007 34.3793456,40.3321007 C34.9603456,39.5141007 35.8553456,38.9421007 36.7733456,38.8001007 Z M64.7883456,82.3601007 C61.2903456,84.0151007 58.3473456,83.8391007 56.0693456,83.0311007 C55.9933456,82.9951007 55.9153456,82.9671007 55.8333456,82.9441007 C52.5653456,81.6951007 50.7363456,79.1741007 50.7093456,79.1291007 C50.2823456,78.4201007 49.3623456,78.1911007 48.6513456,78.6151007 C47.9413456,79.0421007 47.7113456,79.9631007 48.1373456,80.6741007 C48.5893456,81.4261007 49.8643456,82.8991007 51.8023456,84.1911007 C50.0283456,84.7661007 47.7343456,85.3161007 45.6873456,85.1931007 C40.9573456,84.9101007 36.1893456,81.3281007 33.2433456,75.8441007 C27.5373456,65.2241007 25.7843456,49.2841007 25.7673456,49.1251007 C25.7503456,48.9701007 25.7103456,48.8191007 25.6473456,48.6771007 C22.5073456,41.5801007 19.9693456,33.8061007 19.3333456,29.3311007 C18.5023456,23.5061007 19.4373456,21.4091007 20.0683456,20.6781007 C20.3173456,20.3901007 20.7583456,20.0061007 21.7163456,20.0021007 L21.7263456,20.0021007 C24.3913456,20.0021007 25.9133456,25.1031007 27.6763456,31.0071007 C28.5653456,33.9851007 29.5743456,37.3531007 30.8923456,40.6221007 C28.5163456,46.7751007 29.5383456,58.9311007 36.4793456,67.2301007 C38.0723456,69.1351007 39.9653456,70.1791007 41.9553456,70.2491007 C42.0293456,70.2521007 42.1033456,70.2531007 42.1783456,70.2531007 C44.3373456,70.2531007 46.4943456,69.1501007 48.5923456,66.9741007 C48.6193456,66.9461007 48.6293456,66.9081007 48.6543456,66.8781007 C49.1023456,66.9821007 49.5563456,67.0411007 50.0193456,67.0411007 L50.0523456,67.0411007 C52.1753456,67.0291007 54.3183456,65.8641007 56.4303456,63.6021007 C56.9063456,63.8761007 57.3883456,64.1061007 57.8733456,64.2721007 C58.5193456,64.4941007 59.1463456,64.6031007 59.7493456,64.6031007 C60.8473456,64.6031007 61.8593456,64.2381007 62.7383456,63.5151007 C65.8853456,60.9261007 65.0673456,57.0841007 63.7113456,54.4621007 C64.4953456,54.1361007 65.4213456,53.6741007 66.2983456,53.0441007 C66.9703456,52.5611007 67.1233456,51.6241007 66.6403456,50.9511007 C66.1573456,50.2781007 65.2193456,50.1261007 64.5463456,50.6091007 C63.0413456,51.6921007 61.2873456,52.1411007 61.1293456,52.1801007 C53.4723456,53.6201007 50.0283456,51.6551007 49.4053456,49.5311007 C48.9203456,47.8791007 49.9933456,45.9971007 51.8483456,45.2481007 C53.6963456,44.5011007 55.3953456,43.7401007 56.8953456,43.0671007 C61.1763456,41.1481007 64.2713456,39.7601007 66.4123456,40.5901007 C71.0573456,42.3881007 77.6103456,51.8231007 78.1783456,55.5811007 C78.8773456,60.2091007 77.1163456,69.3481007 72.2203456,76.0061007 C72.0273456,76.1591007 71.8693456,76.3581007 71.7703456,76.5941007 C69.8853456,79.0001007 67.5723456,81.0441007 64.7883456,82.3601007 Z" id="Shape" stroke="#0003FF" stroke-width="2" fill="#0003FF" fill-rule="nonzero"></path>
                <path d="M1.4,12.9 L7.6,16.9 C7.8,17 8,17.1 8.3,17.1 C8.7,17.1 9.1,16.9 9.3,16.5 C9.7,15.9 9.5,15.2 8.9,14.8 L2.7,10.8 C2.1,10.4 1.4,10.6 1,11.2 C0.6,11.8 0.8,12.5 1.4,12.9 Z" id="Path" fill="#000000"></path>
                <path d="M16,11.9 C16.2,12.4 16.6,12.7 17.2,12.7 C17.3,12.7 17.5,12.7 17.6,12.6 C18.2,12.4 18.6,11.7 18.4,11 L15,1.1 C14.8,0.5 14.1,0.1 13.4,0.3 C12.8,0.5 12.4,1.2 12.6,1.9 L16,11.9 Z" id="Path" fill="#000000"></path>
                <path d="M26.8,11 C26.9,11.1 27.1,11.1 27.2,11.1 C27.7,11.1 28.2,10.8 28.3,10.3 L30.8,3.4 C31,2.8 30.7,2.1 30.1,1.8 C29.5,1.6 28.8,1.9 28.5,2.5 L26,9.4 C25.8,10.1 26.2,10.8 26.8,11 Z" id="Path" fill="#000000"></path>
            </g>
        </g>
    </g>
</svg>